PathFileType	4	(X/Y/Z)	OpenSim_Sub03_EMGBaseline_Magnet.trc
DataRate	CameraRate	NumFrames	NumMarkers	Units	OrigDataRate	OrigDataStartFrame	OrigNumFrames
100	100	36	8	m	100	1844	7372
Frame#	Time	torso_imu_offset_imu	pelvis_imu_offset_imu	tibia_r_imu_offset_imu	femur_r_imu_offset_imu	tibia_l_imu_offset_imu	femur_l_imu_offset_imu	toes_r_imu_offset_imu	toes_l_imu_offset_imu
				X1	Y1	Z1	X2	Y2	Z2	X3	Y3	Z3	X4	Y4	Z4	X5	Y5	Z5	X6	Y6	Z6	X7	Y7	Z7	X8		Y8	Z8	

1844	18.43000000	-0.90193442	-0.20851073	0.13791440	-0.74309322	0.15255646	-0.55520682	-0.15596840	-0.80475264	-0.08547753	-0.75523365	-0.38307000	-0.04973246	-0.70658900	0.29755366	0.23765418	-0.73720158	0.26140333	0.30567299	-0.59700075	-0.54277848	0.24444268	-0.70638539	-0.14830695	-0.34673290
1845	18.44000000	-0.90085312	-0.21056677	0.14139008	-0.74274513	0.14934170	-0.55437169	-0.14298951	-0.80568829	-0.08685008	-0.76398812	-0.36758413	-0.05387136	-0.70377909	0.30373971	0.23768677	-0.73035481	0.26788336	0.30432270	-0.56434420	-0.56636503	0.26082486	-0.70806833	-0.14767305	-0.35211591
1846	18.45000000	-0.89865638	-0.21007393	0.14719650	-0.74515119	0.15800413	-0.54593823	-0.13914575	-0.80439902	-0.08674879	-0.77567108	-0.34819333	-0.05738812	-0.70184055	0.30540486	0.24153256	-0.72907170	0.27074600	0.31256745	-0.53257639	-0.58910282	0.27608556	-0.70631081	-0.14709022	-0.34955869
1847	18.46000000	-0.89724032	-0.21425024	0.13871882	-0.74284266	0.16076964	-0.54694952	-0.13296011	-0.80375388	-0.08769798	-0.78166480	-0.32723796	-0.06472555	-0.69849174	0.31544493	0.23972192	-0.72982851	0.27419128	0.31414310	-0.51219099	-0.60370704	0.27541448	-0.70980386	-0.14444870	-0.34563992
1848	18.47000000	-0.89547450	-0.21671084	0.13785136	-0.74074926	0.16328637	-0.54821785	-0.12584317	-0.80538206	-0.08802681	-0.78839414	-0.31116635	-0.06877047	-0.69667335	0.32014898	0.24232459	-0.71936481	0.27652981	0.31996713	-0.50364943	-0.61496369	0.26588799	-0.70602633	-0.14303080	-0.34771895
1849	18.48000000	-0.89921246	-0.22115533	0.14029649	-0.74367804	0.16761643	-0.54378798	-0.12218107	-0.80535203	-0.08927621	-0.79662404	-0.29562101	-0.06652691	-0.69350543	0.33029987	0.24812344	-0.71667351	0.27882826	0.32720440	-0.50056955	-0.61384003	0.24902667	-0.70620109	-0.14390926	-0.34924261
1850	18.49000000	-0.90375162	-0.22000708	0.13818282	-0.74574239	0.16855863	-0.54228028	-0.11828736	-0.80400016	-0.09907467	-0.80256889	-0.27973139	-0.06984581	-0.68588008	0.33635526	0.24609627	-0.71488384	0.28478653	0.33201606	-0.50589464	-0.60659521	0.23568235	-0.70641953	-0.14694550	-0.35308533
1851	18.50000000	-0.89628194	-0.21796891	0.13953475	-0.74233235	0.17229900	-0.54320573	-0.11862142	-0.79884439	-0.11228551	-0.80720292	-0.26687350	-0.07272115	-0.68574554	0.33803471	0.24987552	-0.70729137	0.28558278	0.33392082	-0.51303741	-0.60218248	0.22703864	-0.70589850	-0.14620773	-0.35104344
1852	18.51000000	-0.90049226	-0.21978151	0.13965287	-0.73966119	0.17554311	-0.54258902	-0.12482689	-0.79707810	-0.12442166	-0.81981389	-0.25632042	-0.07005919	-0.68539202	0.34589851	0.25642606	-0.70227948	0.29172728	0.33548085	-0.51934944	-0.59580242	0.21794933	-0.70702032	-0.14276554	-0.35104479
1853	18.52000000	-0.89753640	-0.22030772	0.13517328	-0.74421170	0.17700821	-0.54347396	-0.13386167	-0.79458334	-0.12401272	-0.82220548	-0.23953697	-0.06240290	-0.68211433	0.35505748	0.25501006	-0.70327612	0.30186811	0.33491122	-0.52821130	-0.58549273	0.21027995	-0.70514412	-0.14354521	-0.35114980
1854	18.53000000	-0.89911990	-0.22154185	0.13278706	-0.74051356	0.17660618	-0.54190807	-0.14090854	-0.78963846	-0.12703675	-0.82238744	-0.22506688	-0.05507012	-0.67810323	0.35822986	0.25812756	-0.70227200	0.30708802	0.33624489	-0.54112424	-0.57333748	0.20505768	-0.71085672	-0.14277894	-0.34553151
1855	18.54000000	-0.89998544	-0.22339573	0.12932458	-0.73558876	0.18174526	-0.54023488	-0.14968741	-0.79153668	-0.11437138	-0.83061828	-0.21322251	-0.05160963	-0.67130407	0.36445376	0.25954990	-0.69623662	0.31076610	0.33678976	-0.56206266	-0.55643690	0.19742348	-0.71323594	-0.13945513	-0.34244868
1856	18.55000000	-0.89552014	-0.22542102	0.12931391	-0.73375476	0.18591185	-0.53738739	-0.16141250	-0.79298612	-0.09993458	-0.83130724	-0.20395534	-0.04206001	-0.66552530	0.37396601	0.26039653	-0.69574532	0.31206838	0.33430410	-0.57081529	-0.54096056	0.18070659	-0.70976466	-0.14122783	-0.34547609
1857	18.56000000	-0.89591796	-0.22414470	0.12858156	-0.73875034	0.18879375	-0.54249039	-0.16941851	-0.79214401	-0.08527802	-0.83674722	-0.19115333	-0.03825204	-0.66715792	0.38119658	0.26190127	-0.69590057	0.31738783	0.33656833	-0.59186314	-0.52196173	0.16694882	-0.71371709	-0.14025757	-0.34615124
1858	18.57000000	-0.90055535	-0.22666807	0.12821667	-0.74176981	0.18740877	-0.54398754	-0.18918641	-0.78414531	-0.07131315	-0.84487904	-0.17769390	-0.03605051	-0.65991568	0.38428251	0.26314622	-0.69055016	0.32967182	0.34040207	-0.61040504	-0.50137526	0.14962551	-0.71917175	-0.13436715	-0.34398919
1859	18.58000000	-0.89549335	-0.22347558	0.12193504	-0.73659076	0.19151005	-0.54256535	-0.20882944	-0.77837644	-0.06363642	-0.84740252	-0.16503173	-0.03103923	-0.65293676	0.39258734	0.26016240	-0.68513810	0.33201054	0.33670744	-0.62662109	-0.48032956	0.13064256	-0.72039604	-0.13690776	-0.35053056
1860	18.59000000	-0.89531462	-0.22422502	0.12543512	-0.73594551	0.19774987	-0.54670543	-0.22289862	-0.77973954	-0.06262527	-0.84669115	-0.15885240	-0.02312897	-0.65245405	0.40465647	0.26440646	-0.68916545	0.33117900	0.33749950	-0.64566098	-0.46020261	0.10564213	-0.72009990	-0.13812224	-0.35122152
1861	18.60000000	-0.89740439	-0.22653267	0.12264044	-0.73218846	0.19630674	-0.54548166	-0.24533141	-0.76817670	-0.05443792	-0.84970777	-0.15031122	-0.01562823	-0.64945476	0.40817643	0.26206999	-0.68872648	0.33644342	0.33960634	-0.66263299	-0.44828125	0.08117780	-0.72437687	-0.14213076	-0.34589116
1862	18.61000000	-0.89713135	-0.22625080	0.12001538	-0.73385057	0.19781017	-0.54271354	-0.26863509	-0.75677956	-0.04655675	-0.85061079	-0.13750000	-0.01224417	-0.64829032	0.41206858	0.26552828	-0.68355262	0.33599067	0.33475231	-0.67744997	-0.43015890	0.05163556	-0.72614461	-0.13867740	-0.34144570
1863	18.62000000	-0.90045178	-0.22841635	0.12558757	-0.73546038	0.19783303	-0.54597148	-0.29504962	-0.74955598	-0.04156173	-0.85499708	-0.12982340	-0.00124839	-0.64385280	0.41818671	0.27053613	-0.67995311	0.34039009	0.34281399	-0.68222874	-0.41337850	0.02142949	-0.72975556	-0.13349942	-0.33754320
1864	18.63000000	-0.90025252	-0.22398755	0.12851782	-0.73357147	0.19195948	-0.54830869	-0.31473435	-0.74016060	-0.04236966	-0.86318108	-0.12165453	0.00678219	-0.63781632	0.42295607	0.27017597	-0.67952784	0.34721032	0.34499788	-0.69242247	-0.39909325	-0.00156850	-0.73378745	-0.13154198	-0.33706667
1865	18.64000000	-0.89923644	-0.22498509	0.12692446	-0.72800531	0.19252088	-0.55532506	-0.34246279	-0.72800611	-0.04920937	-0.85761267	-0.11368217	0.00858472	-0.63579002	0.43020856	0.26973290	-0.67787725	0.34736513	0.34546738	-0.70564798	-0.38122609	-0.03687962	-0.73489114	-0.13074931	-0.34043203
1866	18.65000000	-0.89883433	-0.21991444	0.12949697	-0.72785833	0.19763095	-0.55770832	-0.36892788	-0.70894424	-0.05466699	-0.85702950	-0.10750873	0.01745894	-0.63310236	0.43536582	0.27325002	-0.67362291	0.35073822	0.34623768	-0.70482524	-0.36482957	-0.07468767	-0.73481666	-0.13390874	-0.33911757
1867	18.66000000	-0.90059969	-0.22161507	0.12637222	-0.73044142	0.19610576	-0.55350165	-0.39646024	-0.69255786	-0.05847001	-0.85852249	-0.09871370	0.01971760	-0.62503042	0.44170825	0.26681854	-0.67310157	0.35827282	0.34604866	-0.70737541	-0.35293269	-0.10357189	-0.73965316	-0.13401780	-0.33189001
1868	18.67000000	-0.89988791	-0.22259364	0.12694222	-0.72808226	0.19273566	-0.55462170	-0.42447468	-0.67634608	-0.06075975	-0.85884160	-0.09543886	0.02292027	-0.62535236	0.44895486	0.26834015	-0.67279098	0.36035603	0.34861368	-0.71088639	-0.33564257	-0.13551402	-0.74443761	-0.13253200	-0.32974534
1869	18.68000000	-0.89540293	-0.21376965	0.13589973	-0.72804988	0.19045597	-0.55910919	-0.45252978	-0.65751130	-0.06089933	-0.85850711	-0.09125290	0.02706402	-0.61919553	0.45433781	0.27500875	-0.66906080	0.36900989	0.34275155	-0.71056806	-0.32049507	-0.16605394	-0.74303183	-0.13159635	-0.32885339
1870	18.69000000	-0.89275533	-0.21308158	0.13642095	-0.72414749	0.19478920	-0.55824420	-0.48341483	-0.63325341	-0.06115716	-0.85901393	-0.09236576	0.03350722	-0.61265124	0.45792275	0.27707450	-0.66765231	0.37179265	0.34831425	-0.71155044	-0.30261298	-0.19676247	-0.74562836	-0.13104006	-0.32219161
1871	18.70000000	-0.89754271	-0.21856451	0.13591863	-0.72336481	0.19614048	-0.55627031	-0.50754173	-0.61319994	-0.05504830	-0.85867449	-0.09521927	0.04271337	-0.61134743	0.45498857	0.27692685	-0.66247548	0.37371756	0.35390967	-0.70981626	-0.27764363	-0.23003063	-0.74744217	-0.13317338	-0.31852056
1872	18.71000000	-0.89781287	-0.21632281	0.13744153	-0.72688847	0.19555542	-0.56731944	-0.53645277	-0.59591193	-0.05102265	-0.85808421	-0.09595214	0.04182084	-0.61262567	0.45788534	0.27619188	-0.65665840	0.37703259	0.35380663	-0.70846154	-0.25896399	-0.25807148	-0.74646950	-0.13261117	-0.31640461
1873	18.72000000	-0.90017055	-0.21571150	0.13806464	-0.72595229	0.19559715	-0.56469294	-0.56082043	-0.57326564	-0.05029336	-0.85672863	-0.10177961	0.04196381	-0.61011288	0.46571879	0.27303434	-0.66099796	0.38063878	0.35171888	-0.71048662	-0.22949129	-0.28350012	-0.74786111	-0.13325395	-0.31036530
1874	18.73000000	-0.90162898	-0.21276649	0.13918574	-0.72130673	0.18617441	-0.56410696	-0.57657878	-0.54605740	-0.04632817	-0.85846688	-0.10660203	0.04652221	-0.60704702	0.47521987	0.27193926	-0.65635847	0.38933863	0.35308030	-0.70849880	-0.19938617	-0.30473855	-0.75019040	-0.13110443	-0.30321322
1875	18.74000000	-0.89792410	-0.20362420	0.14078482	-0.72274512	0.18352622	-0.56937389	-0.59630765	-0.51788591	-0.03997586	-0.85406305	-0.11296588	0.04553255	-0.59866469	0.48121950	0.27464895	-0.65475683	0.39841908	0.35378476	-0.70732324	-0.17516608	-0.32733674	-0.75118551	-0.13415609	-0.29912586
1876	18.75000000	-0.89975093	-0.20064317	0.14314035	-0.72773950	0.18454064	-0.56515877	-0.61478223	-0.49441710	-0.04436413	-0.85102973	-0.11807221	0.05273630	-0.59172219	0.48391488	0.27453596	-0.65231330	0.40219724	0.35103107	-0.70515125	-0.14735173	-0.34593637	-0.74787634	-0.13858408	-0.29792580
1877	18.76000000	-0.90075530	-0.20454334	0.13988886	-0.72204768	0.17951397	-0.56947648	-0.63774356	-0.47022560	-0.04293432	-0.84857768	-0.11941447	0.05743271	-0.59260585	0.49309947	0.27226108	-0.64752044	0.41004820	0.34834268	-0.70110011	-0.11858211	-0.36859981	-0.75155189	-0.13497591	-0.29013686
1878	18.77000000	-0.90154522	-0.20779711	0.13961354	-0.72126285	0.17963713	-0.57435831	-0.65635168	-0.44769595	-0.04371870	-0.85246299	-0.12705470	0.06097697	-0.59368310	0.49731288	0.27260721	-0.64353569	0.41510340	0.34152160	-0.69353371	-0.09001237	-0.38720566	-0.75245958	-0.13889142	-0.28806223
1879	18.78000000	-0.90240828	-0.20522388	0.14277065	-0.72199148	0.17726169	-0.57750482	-0.66739684	-0.42832436	-0.03874230	-0.84908607	-0.13709916	0.06365257	-0.59008549	0.50180767	0.27208192	-0.64019462	0.41953310	0.33985714	-0.68489877	-0.06551207	-0.40606203	-0.75292190	-0.13910330	-0.28327481
